# xmcd
#
# Track frame offsets: 
#        150
#        8855
#        25548
#        34782
#        46182
#        53773
#        66202
#        72935
#        83185
#        93597
#        103211
#        110497
#        121698
#        130851
#        139718
#        147580
#        160218
#        171597
#        182615
#        200418
#        207864
#        217250
#        229135
#
# Disc length: 3180 seconds
#
# Revision: 3
# Processed by: cddbd v1.5.2PL0 Copyright (c) Steve Scherf et al.
# Submitted via: ExactAudioCopyFreeDBPlugin 1.0
#
DISCID=4f0c6a17
DTITLE=Barrence Whitfield - Barrence Whitfield and the Savages (Plus 1
DTITLE=0 More for the Pot)
DYEAR=2010
DGENRE=Rhythm and Blues
TTITLE0=Bip Bop Bip
TTITLE1=Walking with Barrence
TTITLE2=Mama Get the Hammer
TTITLE3=Fat Mama
TTITLE4=Cotton Pickin'
TTITLE5=Go Ahead and Burn
TTITLE6=Savage Sax
TTITLE7=Georgia Slop
TTITLE8=Walk Out
TTITLE9=Miss Shake It
TTITLE10=Whiskey Wagon
TTITLE11=King Kong
TTITLE12=Ship Sailed at Six
TTITLE13=All American Surfer (album outtake)
TTITLE14=Whistle Bait (album outtake)
TTITLE15=Rockin' at the Coconut Top (basement tape)
TTITLE16=Doin' All Right (basement tape)
TTITLE17=Savage Express (basement tape)
TTITLE18=Pain in my Heart (live at Irving Plaza, NYC, 1984)
TTITLE19=Savage Sax (live at UMass, 1985)
TTITLE20=Playgirl (live at UMass, 1985)
TTITLE21=Big Mamou (live at UMass, 1985)
TTITLE22=No Kissin' at the Top (live at UMass, 1985)
EXTD=
EXTT0=
EXTT1=
EXTT2=
EXTT3=
EXTT4=
EXTT5=
EXTT6=
EXTT7=
EXTT8=
EXTT9=
EXTT10=
EXTT11=
EXTT12=
EXTT13=
EXTT14=
EXTT15=
EXTT16=
EXTT17=
EXTT18=
EXTT19=
EXTT20=
EXTT21=
EXTT22=
PLAYORDER=
